<?xml version="1.0" encoding="utf-8"?>
<!-- Generator: Adobe Illustrator 16.0.0, SVG Export Plug-In . SVG Version: 6.00 Build 0)  -->
<!DOCTYPE svg PUBLIC "-//W3C//DTD SVG 1.1//EN" "http://www.w3.org/Graphics/SVG/1.1/DTD/svg11.dtd">
<svg version="1.1" xmlns="http://www.w3.org/2000/svg" xmlns:xlink="http://www.w3.org/1999/xlink" x="0px" y="0px"
	 width="67.242px" height="58.232px" viewBox="0 0 67.242 58.232" enable-background="new 0 0 67.242 58.232" xml:space="preserve">
<g id="hexagon">
	<g>
		<polygon fill="#FFFFFF" points="18.254,55.731 2.887,29.117 18.254,2.5 48.988,2.5 64.355,29.117 48.988,55.731 		"/>
		<path fill="#0281C3" d="M47.544,5l13.924,24.117L47.544,53.231H19.697L5.773,29.117L19.697,5H47.544 M50.431,0H16.811L0,29.117
			l16.811,29.114h33.621l16.811-29.114L50.431,0L50.431,0z"/>
	</g>
</g>
<g id="Text_Original" display="none">
	
		<text transform="matrix(1 0 0 1 11.2192 36.1064)" display="inline" fill="#575756" font-family="'CenturyGothic-Bold'" font-size="20">CMS</text>
</g>
<g id="Text_Original_Kopie">
	<g>
		<path fill="#575756" d="M24.685,24.457l-1.913,1.823c-1.301-1.375-2.764-2.063-4.391-2.063c-1.373,0-2.529,0.469-3.468,1.407
			c-0.94,0.938-1.41,2.096-1.41,3.471c0,0.958,0.208,1.809,0.625,2.552c0.416,0.742,1.005,1.326,1.766,1.749
			c0.761,0.424,1.606,0.636,2.537,0.636c0.793,0,1.519-0.148,2.176-0.444c0.657-0.297,1.379-0.836,2.166-1.618l1.854,1.935
			c-1.061,1.035-2.064,1.754-3.008,2.154s-2.021,0.601-3.232,0.601c-2.233,0-4.061-0.708-5.483-2.124s-2.134-3.23-2.134-5.444
			c0-1.433,0.324-2.705,0.972-3.818s1.576-2.009,2.783-2.686s2.508-1.016,3.901-1.016c1.185,0,2.326,0.25,3.423,0.751
			C22.945,22.822,23.891,23.534,24.685,24.457z"/>
		<path fill="#575756" d="M28.471,21.933h2.664l3.33,10.02l3.36-10.02h2.662l2.41,14.365h-2.645l-1.541-9.072l-3.051,9.072h-2.41
			l-3.024-9.072l-1.577,9.072h-2.666L28.471,21.933z"/>
		<path fill="#575756" d="M45.085,21.933h3.238c2.088,0,3.641,0.259,4.654,0.776c1.016,0.518,1.852,1.359,2.508,2.524
			c0.658,1.165,0.986,2.526,0.986,4.082c0,1.106-0.184,2.124-0.553,3.052c-0.367,0.928-0.873,1.697-1.521,2.31
			c-0.646,0.612-1.348,1.035-2.102,1.27c-0.756,0.234-2.063,0.352-3.924,0.352h-3.287V21.933z M47.8,24.569v9.063h1.27
			c1.25,0,2.156-0.144,2.719-0.43c0.564-0.287,1.023-0.77,1.383-1.447c0.357-0.678,0.537-1.512,0.537-2.503
			c0-1.524-0.428-2.708-1.279-3.549c-0.77-0.756-2.002-1.134-3.701-1.134H47.8z"/>
	</g>
</g>
<g id="CMS_1_" display="none">
	<g display="inline">
		<path fill="#575756" d="M26.487,24.457l-1.913,1.823c-1.301-1.375-2.764-2.063-4.391-2.063c-1.373,0-2.529,0.469-3.468,1.407
			c-0.94,0.938-1.41,2.096-1.41,3.471c0,0.958,0.208,1.809,0.625,2.552c0.416,0.742,1.005,1.326,1.766,1.748
			c0.761,0.424,1.606,0.637,2.537,0.637c0.793,0,1.519-0.148,2.176-0.445s1.379-0.836,2.166-1.617l1.854,1.934
			c-1.061,1.035-2.064,1.754-3.008,2.154s-2.021,0.602-3.232,0.602c-2.233,0-4.061-0.709-5.483-2.125s-2.134-3.229-2.134-5.443
			c0-1.433,0.324-2.705,0.972-3.818s1.576-2.009,2.783-2.686s2.508-1.016,3.901-1.016c1.185,0,2.326,0.25,3.423,0.751
			C24.747,22.822,25.692,23.534,26.487,24.457z"/>
		<path fill="#575756" d="M30.273,21.933h2.664l3.33,10.02l3.359-10.02h2.662l2.41,14.365h-2.645l-1.539-9.072l-3.053,9.072h-2.409
			l-3.024-9.072l-1.577,9.072h-2.666L30.273,21.933z"/>
		<path fill="#575756" d="M54.416,23.886l-2.025,1.787c-0.711-0.989-1.434-1.484-2.172-1.484c-0.357,0-0.652,0.096-0.879,0.288
			c-0.229,0.192-0.344,0.408-0.344,0.649s0.082,0.469,0.244,0.684c0.223,0.286,0.891,0.901,2.006,1.846
			c1.043,0.872,1.676,1.423,1.898,1.65c0.555,0.56,0.947,1.096,1.178,1.606c0.232,0.511,0.348,1.069,0.348,1.675
			c0,1.178-0.406,2.15-1.221,2.92c-0.816,0.768-1.877,1.152-3.188,1.152c-1.023,0-1.914-0.252-2.674-0.752
			c-0.76-0.502-1.41-1.289-1.951-2.363l2.299-1.387c0.691,1.27,1.486,1.904,2.387,1.904c0.469,0,0.863-0.137,1.184-0.41
			c0.318-0.273,0.479-0.59,0.479-0.947c0-0.325-0.121-0.651-0.361-0.977c-0.242-0.325-0.773-0.823-1.594-1.494
			c-1.566-1.276-2.576-2.261-3.033-2.954s-0.686-1.385-0.686-2.075c0-0.996,0.381-1.851,1.139-2.563
			c0.76-0.713,1.697-1.069,2.813-1.069c0.717,0,1.398,0.166,2.047,0.498S53.66,23.007,54.416,23.886z"/>
	</g>
</g>
<g id="OP_1_" display="none">
	<g display="inline">
		<path fill="#575756" d="M28.098,21.571c2.032,0,3.78,0.735,5.242,2.207c1.464,1.472,2.194,3.265,2.194,5.381
			c0,2.097-0.721,3.869-2.165,5.322c-1.442,1.451-3.193,2.178-5.252,2.178c-2.156,0-3.948-0.746-5.375-2.236
			c-1.427-1.492-2.14-3.262-2.14-5.313c0-1.374,0.332-2.637,0.997-3.789s1.578-2.065,2.741-2.739
			C25.503,21.908,26.756,21.571,28.098,21.571z M28.069,24.247c-1.33,0-2.447,0.462-3.353,1.387s-1.359,2.1-1.359,3.525
			c0,1.589,0.57,2.845,1.711,3.77c0.886,0.723,1.903,1.084,3.05,1.084c1.297,0,2.401-0.469,3.313-1.406
			c0.913-0.938,1.369-2.093,1.369-3.467c0-1.367-0.46-2.524-1.379-3.472C30.503,24.721,29.385,24.247,28.069,24.247z"/>
		<path fill="#575756" d="M38.103,21.933h2.9c1.57,0,2.701,0.146,3.395,0.435c0.693,0.29,1.24,0.759,1.641,1.406
			s0.6,1.424,0.6,2.329c0,1.003-0.262,1.836-0.785,2.5c-0.525,0.664-1.236,1.126-2.135,1.387c-0.527,0.149-1.486,0.225-2.881,0.225
			v6.084h-2.734V21.933z M40.837,27.548h0.869c0.684,0,1.16-0.049,1.426-0.146c0.268-0.099,0.477-0.26,0.631-0.485
			c0.152-0.226,0.229-0.498,0.229-0.818c0-0.555-0.215-0.96-0.645-1.215c-0.313-0.189-0.891-0.284-1.738-0.284h-0.771V27.548z"/>
	</g>
</g>
<g id="CL" display="none">
	<g display="inline">
		<path fill="#575756" d="M35.943,24.361l-1.912,1.823c-1.301-1.375-2.765-2.063-4.391-2.063c-1.373,0-2.529,0.469-3.469,1.407
			c-0.94,0.938-1.41,2.096-1.41,3.471c0,0.958,0.208,1.809,0.625,2.552c0.416,0.742,1.005,1.326,1.766,1.749
			c0.761,0.424,1.606,0.636,2.537,0.636c0.793,0,1.519-0.148,2.176-0.444c0.656-0.297,1.379-0.836,2.166-1.618l1.854,1.935
			c-1.062,1.035-2.063,1.754-3.008,2.154s-2.021,0.601-3.232,0.601c-2.233,0-4.061-0.708-5.483-2.124s-2.134-3.23-2.134-5.444
			c0-1.433,0.324-2.705,0.972-3.818s1.576-2.009,2.783-2.686s2.508-1.016,3.901-1.016c1.185,0,2.326,0.25,3.423,0.751
			C34.203,22.727,35.149,23.438,35.943,24.361z"/>
		<path fill="#575756" d="M38.335,21.837h2.734v11.758h3.984v2.607h-6.719V21.837z"/>
	</g>
</g>
<g id="FF_1_" display="none">
	<g display="inline">
		<path fill="#575756" d="M25.276,21.837h7.129v2.666h-4.414v2.607h4.414v2.627h-4.414v6.465h-2.715V21.837z"/>
		<path fill="#575756" d="M34.876,21.837h7.129v2.666h-4.414v2.607h4.414v2.627h-4.414v6.465h-2.715V21.837z"/>
	</g>
</g>
</svg>
